<svg width="16" height="16" viewBox="0 0 16 16" fill="none" xmlns="http://www.w3.org/2000/svg">
<path d="M6.00087 2.50032C6.00087 1.85294 6.52568 1.32812 7.17307 1.32812H8.82866C9.47606 1.32812 10.0009 1.85294 10.0009 2.50033C10.0009 3.4027 10.9777 3.96666 11.7592 3.51548C12.3199 3.19178 13.0368 3.38387 13.3605 3.94454L14.1883 5.37829C14.512 5.93896 14.3199 6.65587 13.7592 6.97957C12.9777 7.43076 12.9777 8.55873 13.7592 9.00992C14.3199 9.33362 14.512 10.0505 14.1883 10.6112L13.3605 12.045C13.0368 12.6056 12.3199 12.7977 11.7592 12.474C10.9777 12.0228 10.0009 12.5868 10.0009 13.4892C10.0009 14.1366 9.47604 14.6615 8.82863 14.6615H7.1731C6.5257 14.6615 6.00087 14.1366 6.00087 13.4892C6.00087 12.5868 5.02403 12.0228 4.24255 12.474C3.68189 12.7977 2.96497 12.6056 2.64128 12.045L1.81349 10.6112C1.48979 10.0505 1.68189 9.33362 2.24256 9.00992C3.02404 8.55873 3.02404 7.43076 2.24256 6.97957C1.68189 6.65587 1.48979 5.93895 1.81349 5.37829L2.64128 3.94453C2.96498 3.38387 3.6819 3.19177 4.24256 3.51547C5.02402 3.96665 6.00087 3.40268 6.00087 2.50032Z" stroke="#858C95" stroke-width="1.5"/>
<path d="M10.6675 7.99479C10.6675 9.46755 9.47363 10.6615 8.00087 10.6615C6.52811 10.6615 5.3342 9.46755 5.3342 7.99479C5.3342 6.52203 6.52811 5.32813 8.00087 5.32813C9.47363 5.32813 10.6675 6.52203 10.6675 7.99479Z" stroke="#858C95" stroke-width="1.5"/>
</svg>
