<svg width="32" height="32" viewBox="0 0 32 32" fill="none" xmlns="http://www.w3.org/2000/svg">
<g id="Icon">
<path id="Icon_2" fill-rule="evenodd" clip-rule="evenodd" d="M30.6654 16.0026C30.6654 24.1028 24.0989 30.6693 15.9987 30.6693C7.89852 30.6693 1.33203 24.1028 1.33203 16.0026C1.33203 7.90243 7.89852 1.33594 15.9987 1.33594C24.0989 1.33594 30.6654 7.90243 30.6654 16.0026ZM9.33173 11.3359C9.33173 10.2314 10.2272 9.33594 11.3317 9.33594C12.4363 9.33594 13.3317 10.2314 13.3317 11.3359C13.3317 12.4405 12.4363 13.3359 11.3317 13.3359C10.2272 13.3359 9.33173 12.4405 9.33173 11.3359ZM18.6651 11.3359C18.6651 10.2314 19.5605 9.33594 20.6651 9.33594C21.7696 9.33594 22.6651 10.2314 22.6651 11.3359C22.6651 12.4405 21.7696 13.3359 20.6651 13.3359C19.5605 13.3359 18.6651 12.4405 18.6651 11.3359ZM10.5625 19.4898C10.2793 18.81 9.49864 18.4886 8.81891 18.7718C8.13917 19.0551 7.81774 19.8357 8.10096 20.5154C8.81066 22.2187 11.3348 25.3359 15.9984 25.3359C20.662 25.3359 23.1861 22.2187 23.8958 20.5154C24.1791 19.8357 23.8576 19.0551 23.1779 18.7718C22.4981 18.4886 21.7175 18.81 21.4343 19.4898C21.0329 20.4532 19.3348 22.6693 15.9984 22.6693C12.662 22.6693 10.9639 20.4532 10.5625 19.4898Z" fill="white"/>
</g>
</svg>
